<svg xmlns="http://www.w3.org/2000/svg" xmlns:xlink="http://www.w3.org/1999/xlink" contentStyleType="text/css" data-diagram-type="CLASS" height="1141px" preserveAspectRatio="none" style="width:5201px;height:1141px;background:#FFFFFF;" version="1.1" viewBox="0 0 5201 1141" width="5201px" zoomAndPan="magnify"><defs/><g><!--class EventType--><g class="entity" data-entity="EventType" data-source-line="1" data-uid="ent0002" id="entity_EventType"><rect fill="#F1F1F1" height="80.5938" rx="2.5" ry="2.5" style="stroke:#181818;stroke-width:0.5;" width="106.4434" x="274.34" y="202.56"/><ellipse cx="289.34" cy="218.56" fill="#EB937F" rx="11" ry="11" style="stroke:#181818;stroke-width:1;"/><path d="M293.4494,224.56 L285.7306,224.56 L285.7306,212.1694 L293.4494,212.1694 L293.4494,214.3256 L288.1838,214.3256 L288.1838,216.9975 L292.9494,216.9975 L292.9494,219.1538 L288.1838,219.1538 L288.1838,222.4038 L293.4494,222.4038 L293.4494,224.56 Z " fill="#000000"/><text fill="#000000" font-family="sans-serif" font-size="14" lengthAdjust="spacing" textLength="74.4434" x="303.34" y="223.4067">EventType</text><line style="stroke:#181818;stroke-width:0.5;" x1="275.34" x2="379.7834" y1="234.56" y2="234.56"/><text fill="#000000" font-family="sans-serif" font-size="14" lengthAdjust="spacing" textLength="44.7891" x="280.34" y="251.5551">PRESS</text><text fill="#000000" font-family="sans-serif" font-size="14" lengthAdjust="spacing" textLength="38.999" x="280.34" y="267.852">TURN</text><line style="stroke:#181818;stroke-width:0.5;" x1="275.34" x2="379.7834" y1="275.1538" y2="275.1538"/></g><!--class GpioEvent--><g class="entity" data-entity="GpioEvent" data-source-line="6" data-uid="ent0003" id="entity_GpioEvent"><rect fill="#F1F1F1" height="129.4844" rx="2.5" ry="2.5" style="stroke:#181818;stroke-width:0.5;" width="339.5713" x="415.77" y="178.11"/><ellipse cx="545.1572" cy="194.11" fill="#ADD1B2" rx="11" ry="11" style="stroke:#181818;stroke-width:1;"/><path d="M548.126,199.7506 Q547.5478,200.0475 546.9072,200.1881 Q546.2666,200.3444 545.5635,200.3444 Q543.0635,200.3444 541.7353,198.7038 Q540.4228,197.0475 540.4228,193.9225 Q540.4228,190.7975 541.7353,189.1413 Q543.0635,187.485 545.5635,187.485 Q546.2666,187.485 546.9072,187.6413 Q547.5635,187.7975 548.126,188.0944 L548.126,190.8131 Q547.501,190.235 546.9072,189.9694 Q546.3135,189.6881 545.6885,189.6881 Q544.3447,189.6881 543.6572,190.7663 Q542.9697,191.8288 542.9697,193.9225 Q542.9697,196.0163 543.6572,197.0944 Q544.3447,198.1569 545.6885,198.1569 Q546.3135,198.1569 546.9072,197.8913 Q547.501,197.61 548.126,197.0319 L548.126,199.7506 Z " fill="#000000"/><text fill="#000000" font-family="sans-serif" font-size="14" lengthAdjust="spacing" textLength="72.2969" x="565.6572" y="198.9567">GpioEvent</text><line style="stroke:#181818;stroke-width:0.5;" x1="416.77" x2="754.3413" y1="210.11" y2="210.11"/><ellipse cx="426.77" cy="223.7584" fill="none" rx="3" ry="3" style="stroke:#038048;stroke-width:1;"/><text fill="#000000" font-family="sans-serif" font-size="14" lengthAdjust="spacing" textLength="110.168" x="435.77" y="227.1051">EventType type</text><ellipse cx="426.77" cy="240.0553" fill="none" rx="3" ry="3" style="stroke:#038048;stroke-width:1;"/><text fill="#000000" font-family="sans-serif" font-size="14" lengthAdjust="spacing" textLength="101.5615" x="435.77" y="243.402">bool clockwise</text><ellipse cx="426.77" cy="256.3522" fill="none" rx="3" ry="3" style="stroke:#038048;stroke-width:1;"/><text fill="#000000" font-family="sans-serif" font-size="14" lengthAdjust="spacing" textLength="128.5225" x="435.77" y="259.6989">int32_t timestamp</text><line style="stroke:#181818;stroke-width:0.5;" x1="416.77" x2="754.3413" y1="267.0006" y2="267.0006"/><ellipse cx="426.77" cy="280.6491" fill="#84BE84" rx="3" ry="3" style="stroke:#038048;stroke-width:1;"/><text fill="#000000" font-family="sans-serif" font-size="14" lengthAdjust="spacing" textLength="83.2207" x="435.77" y="283.9957">GpioEvent()</text><ellipse cx="426.77" cy="296.9459" fill="#84BE84" rx="3" ry="3" style="stroke:#038048;stroke-width:1;"/><text fill="#000000" font-family="sans-serif" font-size="14" lengthAdjust="spacing" textLength="313.5713" x="435.77" y="300.2926">GpioEvent(EventType t, bool cw, uint32_t ts)</text></g><!--class ISensor--><g class="entity" data-entity="ISensor" data-source-line="14" data-uid="ent0004" id="entity_ISensor"><rect fill="#F1F1F1" height="80.5938" rx="2.5" ry="2.5" style="stroke:#181818;stroke-width:0.5;" width="151.1045" x="3776.01" y="603.9"/><ellipse cx="3821.2537" cy="619.9" fill="#B4A7E5" rx="11" ry="11" style="stroke:#181818;stroke-width:1;"/><path d="M3817.1755,615.6656 L3817.1755,613.5094 L3824.5662,613.5094 L3824.5662,615.6656 L3822.0974,615.6656 L3822.0974,623.7438 L3824.5662,623.7438 L3824.5662,625.9 L3817.1755,625.9 L3817.1755,623.7438 L3819.6443,623.7438 L3819.6443,615.6656 L3817.1755,615.6656 Z " fill="#000000"/><text fill="#000000" font-family="sans-serif" font-size="14" font-style="italic" lengthAdjust="spacing" textLength="52.1172" x="3841.7537" y="624.7467">ISensor</text><line style="stroke:#181818;stroke-width:0.5;" x1="3777.01" x2="3926.1145" y1="635.9" y2="635.9"/><line style="stroke:#181818;stroke-width:0.5;" x1="3777.01" x2="3926.1145" y1="643.9" y2="643.9"/><ellipse cx="3787.01" cy="657.5484" fill="#84BE84" rx="3" ry="3" style="stroke:#038048;stroke-width:1;"/><text fill="#000000" font-family="sans-serif" font-size="14" lengthAdjust="spacing" textLength="125.1045" x="3796.01" y="660.8951">bool readSensor()</text><ellipse cx="3787.01" cy="673.8453" fill="#84BE84" rx="3" ry="3" style="stroke:#038048;stroke-width:1;"/><text fill="#000000" font-family="sans-serif" font-size="14" lengthAdjust="spacing" textLength="74.7715" x="3796.01" y="677.192">~ISensor()</text></g><!--class CO2Sensor--><g class="entity" data-entity="CO2Sensor" data-source-line="19" data-uid="ent0005" id="entity_CO2Sensor"><rect fill="#F1F1F1" height="162.0781" rx="2.5" ry="2.5" style="stroke:#181818;stroke-width:0.5;" width="1075.1592" x="2431.98" y="161.82"/><ellipse cx="2926.4644" cy="177.82" fill="#ADD1B2" rx="11" ry="11" style="stroke:#181818;stroke-width:1;"/><path d="M2929.4331,183.4606 Q2928.855,183.7575 2928.2144,183.8981 Q2927.5738,184.0544 2926.8706,184.0544 Q2924.3706,184.0544 2923.0425,182.4138 Q2921.73,180.7575 2921.73,177.6325 Q2921.73,174.5075 2923.0425,172.8513 Q2924.3706,171.195 2926.8706,171.195 Q2927.5738,171.195 2928.2144,171.3513 Q2928.8706,171.5075 2929.4331,171.8044 L2929.4331,174.5231 Q2928.8081,173.945 2928.2144,173.6794 Q2927.6206,173.3981 2926.9956,173.3981 Q2925.6519,173.3981 2924.9644,174.4763 Q2924.2769,175.5388 2924.2769,177.6325 Q2924.2769,179.7263 2924.9644,180.8044 Q2925.6519,181.8669 2926.9956,181.8669 Q2927.6206,181.8669 2928.2144,181.6013 Q2928.8081,181.32 2929.4331,180.7419 L2929.4331,183.4606 Z " fill="#000000"/><text fill="#000000" font-family="sans-serif" font-size="14" lengthAdjust="spacing" textLength="77.6904" x="2946.9644" y="182.6667">CO2Sensor</text><line style="stroke:#181818;stroke-width:0.5;" x1="2432.98" x2="3506.1392" y1="193.82" y2="193.82"/><rect fill="none" height="6" style="stroke:#C82930;stroke-width:1;" width="6" x="2439.98" y="204.4684"/><text fill="#000000" font-family="sans-serif" font-size="14" lengthAdjust="spacing" textLength="296.1123" x="2451.98" y="210.8151">shared_ptr&lt;ModbusRegister&gt; co2LowReg</text><rect fill="none" height="6" style="stroke:#C82930;stroke-width:1;" width="6" x="2439.98" y="220.7653"/><text fill="#000000" font-family="sans-serif" font-size="14" lengthAdjust="spacing" textLength="333.7236" x="2451.98" y="227.112">shared_ptr&lt;ModbusRegister&gt; deviceStatusReg</text><rect fill="none" height="6" style="stroke:#C82930;stroke-width:1;" width="6" x="2439.98" y="237.0622"/><text fill="#000000" font-family="sans-serif" font-size="14" lengthAdjust="spacing" textLength="312.9082" x="2451.98" y="243.4089">shared_ptr&lt;ModbusRegister&gt; co2StatusReg</text><rect fill="none" height="6" style="stroke:#C82930;stroke-width:1;" width="6" x="2439.98" y="253.3591"/><text fill="#000000" font-family="sans-serif" font-size="14" lengthAdjust="spacing" textLength="92.4834" x="2451.98" y="259.7057">float co2ppm</text><line style="stroke:#181818;stroke-width:0.5;" x1="2432.98" x2="3506.1392" y1="267.0075" y2="267.0075"/><ellipse cx="2442.98" cy="280.6559" fill="#84BE84" rx="3" ry="3" style="stroke:#038048;stroke-width:1;"/><text fill="#000000" font-family="sans-serif" font-size="14" lengthAdjust="spacing" textLength="1049.1592" x="2451.98" y="284.0026">CO2Sensor(shared_ptr&lt;ModbusRegister&gt; co2LowReg, shared_ptr&lt;ModbusRegister&gt; deviceStatusReg, shared_ptr&lt;ModbusRegister&gt; co2StatusReg)</text><ellipse cx="2442.98" cy="296.9528" fill="#84BE84" rx="3" ry="3" style="stroke:#038048;stroke-width:1;"/><text fill="#000000" font-family="sans-serif" font-size="14" lengthAdjust="spacing" textLength="129.7393" x="2451.98" y="300.2995">float cetCO2ppm()</text><ellipse cx="2442.98" cy="313.2497" fill="#84BE84" rx="3" ry="3" style="stroke:#038048;stroke-width:1;"/><text fill="#000000" font-family="sans-serif" font-size="14" lengthAdjust="spacing" textLength="109.3477" x="2451.98" y="316.5964">float getValue()</text></g><!--class PressureSensor--><g class="entity" data-entity="PressureSensor" data-source-line="34" data-uid="ent0006" id="entity_PressureSensor"><rect fill="#F1F1F1" height="227.2656" rx="2.5" ry="2.5" style="stroke:#181818;stroke-width:0.5;" width="619.5918" x="3541.76" y="129.22"/><ellipse cx="3792.991" cy="145.22" fill="#ADD1B2" rx="11" ry="11" style="stroke:#181818;stroke-width:1;"/><path d="M3795.9597,150.8606 Q3795.3816,151.1575 3794.741,151.2981 Q3794.1003,151.4544 3793.3972,151.4544 Q3790.8972,151.4544 3789.5691,149.8138 Q3788.2566,148.1575 3788.2566,145.0325 Q3788.2566,141.9075 3789.5691,140.2513 Q3790.8972,138.595 3793.3972,138.595 Q3794.1003,138.595 3794.741,138.7513 Q3795.3972,138.9075 3795.9597,139.2044 L3795.9597,141.9231 Q3795.3347,141.345 3794.741,141.0794 Q3794.1472,140.7981 3793.5222,140.7981 Q3792.1785,140.7981 3791.491,141.8763 Q3790.8035,142.9388 3790.8035,145.0325 Q3790.8035,147.1263 3791.491,148.2044 Q3792.1785,149.2669 3793.5222,149.2669 Q3794.1472,149.2669 3794.741,149.0013 Q3795.3347,148.72 3795.9597,148.1419 L3795.9597,150.8606 Z " fill="#000000"/><text fill="#000000" font-family="sans-serif" font-size="14" lengthAdjust="spacing" textLength="108.6299" x="3813.491" y="150.0667">PressureSensor</text><line style="stroke:#181818;stroke-width:0.5;" x1="3542.76" x2="4160.3518" y1="161.22" y2="161.22"/><rect fill="none" height="6" style="stroke:#C82930;stroke-width:1;" width="6" x="3549.76" y="171.8684"/><text fill="#000000" font-family="sans-serif" font-size="14" lengthAdjust="spacing" textLength="203.8682" x="3561.76" y="178.2151">shared_ptr&lt;PicoI2C&gt; my_i2c</text><rect fill="none" height="6" style="stroke:#C82930;stroke-width:1;" width="6" x="3549.76" y="188.1653"/><text fill="#000000" font-family="sans-serif" font-size="14" lengthAdjust="spacing" textLength="195.542" x="3561.76" y="194.512">unsigned int8_t i2c_address</text><rect fill="none" height="6" style="stroke:#C82930;stroke-width:1;" width="6" x="3549.76" y="204.4622"/><text fill="#000000" font-family="sans-serif" font-size="14" lengthAdjust="spacing" textLength="114.0098" x="3561.76" y="210.8089">float pressurePa</text><rect fill="none" height="6" style="stroke:#C82930;stroke-width:1;" width="6" x="3549.76" y="220.7591"/><text fill="#000000" font-family="sans-serif" font-size="14" lengthAdjust="spacing" textLength="110.25" x="3561.76" y="227.1057">float altitude_m</text><rect fill="none" height="6" style="stroke:#C82930;stroke-width:1;" width="6" x="3549.76" y="237.0559"/><text fill="#000000" font-family="sans-serif" font-size="14" lengthAdjust="spacing" textLength="82.3662" x="3561.76" y="243.4026">bool useCrc</text><line style="stroke:#181818;stroke-width:0.5;" x1="3542.76" x2="4160.3518" y1="250.7044" y2="250.7044"/><ellipse cx="3552.76" cy="264.3528" fill="#84BE84" rx="3" ry="3" style="stroke:#038048;stroke-width:1;"/><text fill="#000000" font-family="sans-serif" font-size="14" lengthAdjust="spacing" textLength="593.5918" x="3561.76" y="267.6995">PressureSensor(shared_ptr&lt;PicoI2C&gt; my_i2c, uint8_t i2cAddress, float altitude_m, }</text><text fill="#000000" font-family="sans-serif" font-size="14" lengthAdjust="spacing" textLength="87.8281" x="3561.76" y="283.9964">bool useCrc)</text><ellipse cx="3552.76" cy="296.9466" fill="#84BE84" rx="3" ry="3" style="stroke:#038048;stroke-width:1;"/><text fill="#000000" font-family="sans-serif" font-size="14" lengthAdjust="spacing" textLength="109.3477" x="3561.76" y="300.2932">float getValue()</text><ellipse cx="3552.76" cy="313.2434" fill="#84BE84" rx="3" ry="3" style="stroke:#038048;stroke-width:1;"/><text fill="#000000" font-family="sans-serif" font-size="14" lengthAdjust="spacing" textLength="147.4785" x="3561.76" y="316.5901">float getPressurePa()</text><rect fill="#F24D5C" height="6" style="stroke:#C82930;stroke-width:1;" width="6" x="3549.76" y="326.5403"/><text fill="#000000" font-family="sans-serif" font-size="14" lengthAdjust="spacing" textLength="365.8525" x="3561.76" y="332.887">float approximateAmbientPressure(float altitude_m)</text><rect fill="#F24D5C" height="6" style="stroke:#C82930;stroke-width:1;" width="6" x="3549.76" y="342.8372"/><text fill="#000000" font-family="sans-serif" font-size="14" lengthAdjust="spacing" textLength="577.4521" x="3561.76" y="349.1839">bool checkCrc8(unsigned int8_t msb, unsigned int8_t lsb, unsigned int8_t crcByte)</text></g><!--class TempRHSensor--><g class="entity" data-entity="TempRHSensor" data-source-line="53" data-uid="ent0007" id="entity_TempRHSensor"><rect fill="#F1F1F1" height="178.375" rx="2.5" ry="2.5" style="stroke:#181818;stroke-width:0.5;" width="998.0908" x="4196.51" y="153.67"/><ellipse cx="4637.3391" cy="169.67" fill="#ADD1B2" rx="11" ry="11" style="stroke:#181818;stroke-width:1;"/><path d="M4640.3079,175.3106 Q4639.7297,175.6075 4639.0891,175.7481 Q4638.4485,175.9044 4637.7454,175.9044 Q4635.2454,175.9044 4633.9172,174.2638 Q4632.6047,172.6075 4632.6047,169.4825 Q4632.6047,166.3575 4633.9172,164.7013 Q4635.2454,163.045 4637.7454,163.045 Q4638.4485,163.045 4639.0891,163.2013 Q4639.7454,163.3575 4640.3079,163.6544 L4640.3079,166.3731 Q4639.6829,165.795 4639.0891,165.5294 Q4638.4954,165.2481 4637.8704,165.2481 Q4636.5266,165.2481 4635.8391,166.3263 Q4635.1516,167.3888 4635.1516,169.4825 Q4635.1516,171.5763 4635.8391,172.6544 Q4636.5266,173.7169 4637.8704,173.7169 Q4638.4954,173.7169 4639.0891,173.4513 Q4639.6829,173.17 4640.3079,172.5919 L4640.3079,175.3106 Z " fill="#000000"/><text fill="#000000" font-family="sans-serif" font-size="14" lengthAdjust="spacing" textLength="107.9326" x="4657.8391" y="174.5167">TempRHSensor</text><line style="stroke:#181818;stroke-width:0.5;" x1="4197.51" x2="5193.6008" y1="185.67" y2="185.67"/><rect fill="none" height="6" style="stroke:#C82930;stroke-width:1;" width="6" x="4204.51" y="196.3184"/><text fill="#000000" font-family="sans-serif" font-size="14" lengthAdjust="spacing" textLength="279.7539" x="4216.51" y="202.6651">shared_ptr&lt;ModbusRegister&gt; tempReg</text><rect fill="none" height="6" style="stroke:#C82930;stroke-width:1;" width="6" x="4204.51" y="212.6153"/><text fill="#000000" font-family="sans-serif" font-size="14" lengthAdjust="spacing" textLength="257.7559" x="4216.51" y="218.962">shared_ptr&lt;ModbusRegister&gt; rhReg</text><rect fill="none" height="6" style="stroke:#C82930;stroke-width:1;" width="6" x="4204.51" y="228.9122"/><text fill="#000000" font-family="sans-serif" font-size="14" lengthAdjust="spacing" textLength="297.9238" x="4216.51" y="235.2589">shared_ptr&lt;ModbusRegister&gt; trhErrorReg</text><rect fill="none" height="6" style="stroke:#C82930;stroke-width:1;" width="6" x="4204.51" y="245.2091"/><text fill="#000000" font-family="sans-serif" font-size="14" lengthAdjust="spacing" textLength="124.209" x="4216.51" y="251.5557">float temperature</text><rect fill="none" height="6" style="stroke:#C82930;stroke-width:1;" width="6" x="4204.51" y="261.5059"/><text fill="#000000" font-family="sans-serif" font-size="14" lengthAdjust="spacing" textLength="97.7266" x="4216.51" y="267.8526">float humidity</text><line style="stroke:#181818;stroke-width:0.5;" x1="4197.51" x2="5193.6008" y1="275.1544" y2="275.1544"/><ellipse cx="4207.51" cy="288.8028" fill="#84BE84" rx="3" ry="3" style="stroke:#038048;stroke-width:1;"/><text fill="#000000" font-family="sans-serif" font-size="14" lengthAdjust="spacing" textLength="972.0908" x="4216.51" y="292.1495">TempRHSensor(shared_ptr&lt;ModbusRegister&gt; tempReg, shared_ptr&lt;ModbusRegister&gt; rhReg, shared_ptr&lt;ModbusRegister&gt; trhErrorReg)</text><ellipse cx="4207.51" cy="305.0997" fill="#84BE84" rx="3" ry="3" style="stroke:#038048;stroke-width:1;"/><text fill="#000000" font-family="sans-serif" font-size="14" lengthAdjust="spacing" textLength="161.1846" x="4216.51" y="308.4464">float getTemperature()</text><ellipse cx="4207.51" cy="321.3966" fill="#84BE84" rx="3" ry="3" style="stroke:#038048;stroke-width:1;"/><text fill="#000000" font-family="sans-serif" font-size="14" lengthAdjust="spacing" textLength="133.2939" x="4216.51" y="324.7432">float getHumidity()</text></g><!--class Controller--><g class="entity" data-entity="Controller" data-source-line="69" data-uid="ent0008" id="entity_Controller"><rect fill="#F1F1F1" height="471.7188" rx="2.5" ry="2.5" style="stroke:#181818;stroke-width:0.5;" width="1606.2637" x="790.43" y="7"/><ellipse cx="1554.7254" cy="23" fill="#ADD1B2" rx="11" ry="11" style="stroke:#181818;stroke-width:1;"/><path d="M1557.6942,28.6406 Q1557.116,28.9375 1556.4754,29.0781 Q1555.8348,29.2344 1555.1317,29.2344 Q1552.6317,29.2344 1551.3035,27.5938 Q1549.991,25.9375 1549.991,22.8125 Q1549.991,19.6875 1551.3035,18.0313 Q1552.6317,16.375 1555.1317,16.375 Q1555.8348,16.375 1556.4754,16.5313 Q1557.1317,16.6875 1557.6942,16.9844 L1557.6942,19.7031 Q1557.0692,19.125 1556.4754,18.8594 Q1555.8817,18.5781 1555.2567,18.5781 Q1553.9129,18.5781 1553.2254,19.6563 Q1552.5379,20.7188 1552.5379,22.8125 Q1552.5379,24.9063 1553.2254,25.9844 Q1553.9129,27.0469 1555.2567,27.0469 Q1555.8817,27.0469 1556.4754,26.7813 Q1557.0692,26.5 1557.6942,25.9219 L1557.6942,28.6406 Z " fill="#000000"/><text fill="#000000" font-family="sans-serif" font-size="14" lengthAdjust="spacing" textLength="69.1729" x="1575.2254" y="27.8467">Controller</text><line style="stroke:#181818;stroke-width:0.5;" x1="791.43" x2="2395.6937" y1="39" y2="39"/><ellipse cx="801.43" cy="52.6484" fill="none" rx="3" ry="3" style="stroke:#038048;stroke-width:1;"/><text fill="#000000" font-family="sans-serif" font-size="14" lengthAdjust="spacing" textLength="110.0996" x="810.43" y="55.9951">bool safetyVent</text><text fill="#000000" font-family="sans-serif" font-size="14" lengthAdjust="spacing" textLength="4.4502" x="810.43" y="72.292">&#160;</text><rect fill="none" height="6" style="stroke:#C82930;stroke-width:1;" width="6" x="798.43" y="82.2422"/><text fill="#000000" font-family="sans-serif" font-size="14" lengthAdjust="spacing" textLength="253.8936" x="810.43" y="88.5889">shared_ptr&lt;CO2Sensor&gt; co2Sensor</text><rect fill="none" height="6" style="stroke:#C82930;stroke-width:1;" width="6" x="798.43" y="98.5391"/><text fill="#000000" font-family="sans-serif" font-size="14" lengthAdjust="spacing" textLength="279.084" x="810.43" y="104.8857">shared_ptr&lt;TempRHSensor&gt; thrSensor</text><rect fill="none" height="6" style="stroke:#C82930;stroke-width:1;" width="6" x="798.43" y="114.8359"/><text fill="#000000" font-family="sans-serif" font-size="14" lengthAdjust="spacing" textLength="290.2129" x="810.43" y="121.1826">shared_ptr&lt;PressureSensor&gt; presSensor</text><rect fill="none" height="6" style="stroke:#C82930;stroke-width:1;" width="6" x="798.43" y="131.1328"/><text fill="#000000" font-family="sans-serif" font-size="14" lengthAdjust="spacing" textLength="194.0107" x="810.43" y="137.4795">shared_ptr&lt;FanDriver&gt; fan</text><rect fill="none" height="6" style="stroke:#C82930;stroke-width:1;" width="6" x="798.43" y="147.4297"/><text fill="#000000" font-family="sans-serif" font-size="14" lengthAdjust="spacing" textLength="222.7217" x="810.43" y="153.7764">shared_ptr&lt;ValveDriver&gt; valve</text><rect fill="none" height="6" style="stroke:#C82930;stroke-width:1;" width="6" x="798.43" y="163.7266"/><text fill="#000000" font-family="sans-serif" font-size="14" lengthAdjust="spacing" textLength="325.6299" x="810.43" y="170.0732">shared_ptr&lt;EEPROMStorage&gt; eepromStorage</text><rect fill="none" height="6" style="stroke:#C82930;stroke-width:1;" width="6" x="798.43" y="180.0234"/><text fill="#000000" font-family="sans-serif" font-size="14" lengthAdjust="spacing" textLength="184.8574" x="810.43" y="186.3701">TimerHandle_t valveTimer</text><rect fill="none" height="6" style="stroke:#C82930;stroke-width:1;" width="6" x="798.43" y="196.3203"/><text fill="#000000" font-family="sans-serif" font-size="14" lengthAdjust="spacing" textLength="119.7656" x="810.43" y="202.667">float co2Setpoint</text><rect fill="none" height="6" style="stroke:#C82930;stroke-width:1;" width="6" x="798.43" y="212.6172"/><text fill="#000000" font-family="sans-serif" font-size="14" lengthAdjust="spacing" textLength="116.6621" x="810.43" y="218.9639">float currentCO2</text><rect fill="none" height="6" style="stroke:#C82930;stroke-width:1;" width="6" x="798.43" y="228.9141"/><text fill="#000000" font-family="sans-serif" font-size="14" lengthAdjust="spacing" textLength="126.6494" x="810.43" y="235.2607">float currentTemp</text><rect fill="none" height="6" style="stroke:#C82930;stroke-width:1;" width="6" x="798.43" y="245.2109"/><text fill="#000000" font-family="sans-serif" font-size="14" lengthAdjust="spacing" textLength="107.2148" x="810.43" y="251.5576">float currentRH</text><rect fill="none" height="6" style="stroke:#C82930;stroke-width:1;" width="6" x="798.43" y="261.5078"/><text fill="#000000" font-family="sans-serif" font-size="14" lengthAdjust="spacing" textLength="147.6016" x="810.43" y="267.8545">float currentPressure</text><rect fill="none" height="6" style="stroke:#C82930;stroke-width:1;" width="6" x="798.43" y="277.8047"/><text fill="#000000" font-family="sans-serif" font-size="14" lengthAdjust="spacing" textLength="156.3516" x="810.43" y="284.1514">float currentFanSpeed</text><line style="stroke:#181818;stroke-width:0.5;" x1="791.43" x2="2395.6937" y1="291.4531" y2="291.4531"/><ellipse cx="801.43" cy="305.1016" fill="#84BE84" rx="3" ry="3" style="stroke:#038048;stroke-width:1;"/><text fill="#000000" font-family="sans-serif" font-size="14" lengthAdjust="spacing" textLength="1580.2637" x="810.43" y="308.4482">void Controller(shared_ptr&lt;CO2Sensor&gt; co2, shared_ptr&lt;TempRHSensor&gt; thr, shared_ptr&lt;PressureSensor&gt; pres, shared_ptr&lt;FanDriver&gt; fan, shared_ptr&lt;ValveDriver&gt; valve, shared_ptr&lt;EEPROMStorage&gt; eepromStorage)</text><ellipse cx="801.43" cy="321.3984" fill="#84BE84" rx="3" ry="3" style="stroke:#038048;stroke-width:1;"/><text fill="#000000" font-family="sans-serif" font-size="14" lengthAdjust="spacing" textLength="145.2432" x="810.43" y="324.7451">void updateControl()</text><ellipse cx="801.43" cy="337.6953" fill="#84BE84" rx="3" ry="3" style="stroke:#038048;stroke-width:1;"/><text fill="#000000" font-family="sans-serif" font-size="14" lengthAdjust="spacing" textLength="247.7959" x="810.43" y="341.042">void setCO2Setpoint(float setpoint)</text><ellipse cx="801.43" cy="353.9922" fill="#84BE84" rx="3" ry="3" style="stroke:#038048;stroke-width:1;"/><text fill="#000000" font-family="sans-serif" font-size="14" lengthAdjust="spacing" textLength="158.2109" x="810.43" y="357.3389">float getCO2Setpoint()</text><ellipse cx="801.43" cy="370.2891" fill="#84BE84" rx="3" ry="3" style="stroke:#038048;stroke-width:1;"/><text fill="#000000" font-family="sans-serif" font-size="14" lengthAdjust="spacing" textLength="152.6533" x="810.43" y="373.6357">float getCurrentCO2()</text><ellipse cx="801.43" cy="386.5859" fill="#84BE84" rx="3" ry="3" style="stroke:#038048;stroke-width:1;"/><text fill="#000000" font-family="sans-serif" font-size="14" lengthAdjust="spacing" textLength="162.6406" x="810.43" y="389.9326">float getCurrentTemp()</text><ellipse cx="801.43" cy="402.8828" fill="#84BE84" rx="3" ry="3" style="stroke:#038048;stroke-width:1;"/><text fill="#000000" font-family="sans-serif" font-size="14" lengthAdjust="spacing" textLength="143.2061" x="810.43" y="406.2295">float getCurrentRH()</text><ellipse cx="801.43" cy="419.1797" fill="#84BE84" rx="3" ry="3" style="stroke:#038048;stroke-width:1;"/><text fill="#000000" font-family="sans-serif" font-size="14" lengthAdjust="spacing" textLength="183.5928" x="810.43" y="422.5264">float getCurrentPressure()</text><ellipse cx="801.43" cy="435.4766" fill="#84BE84" rx="3" ry="3" style="stroke:#038048;stroke-width:1;"/><text fill="#000000" font-family="sans-serif" font-size="14" lengthAdjust="spacing" textLength="192.3428" x="810.43" y="438.8232">float getCurrentFanSpeed()</text><ellipse cx="801.43" cy="451.7734" fill="#84BE84" rx="3" ry="3" style="stroke:#038048;stroke-width:1;"/><text fill="#000000" font-family="sans-serif" font-size="14" lengthAdjust="spacing" textLength="132.8018" x="810.43" y="455.1201">bool isValveOpen()</text><rect fill="#F24D5C" height="6" style="stroke:#C82930;stroke-width:1;" width="6" x="798.43" y="465.0703"/><text fill="#000000" font-family="sans-serif" font-size="14" lengthAdjust="spacing" textLength="380.8848" x="810.43" y="471.417">static void valveTimerCallback(TimerHandle_t xTimer)</text></g><!--class FanDriver--><g class="entity" data-entity="FanDriver" data-source-line="106" data-uid="ent0009" id="entity_FanDriver"><rect fill="#F1F1F1" height="129.4844" rx="2.5" ry="2.5" style="stroke:#181818;stroke-width:0.5;" width="402.0586" x="126.53" y="579.46"/><ellipse cx="289.0168" cy="595.46" fill="#ADD1B2" rx="11" ry="11" style="stroke:#181818;stroke-width:1;"/><path d="M291.9856,601.1006 Q291.4074,601.3975 290.7668,601.5381 Q290.1262,601.6944 289.4231,601.6944 Q286.9231,601.6944 285.5949,600.0538 Q284.2824,598.3975 284.2824,595.2725 Q284.2824,592.1475 285.5949,590.4913 Q286.9231,588.835 289.4231,588.835 Q290.1262,588.835 290.7668,588.9913 Q291.4231,589.1475 291.9856,589.4444 L291.9856,592.1631 Q291.3606,591.585 290.7668,591.3194 Q290.1731,591.0381 289.5481,591.0381 Q288.2043,591.0381 287.5168,592.1163 Q286.8293,593.1788 286.8293,595.2725 Q286.8293,597.3663 287.5168,598.4444 Q288.2043,599.5069 289.5481,599.5069 Q290.1731,599.5069 290.7668,599.2413 Q291.3606,598.96 291.9856,598.3819 L291.9856,601.1006 Z " fill="#000000"/><text fill="#000000" font-family="sans-serif" font-size="14" lengthAdjust="spacing" textLength="68.585" x="309.5168" y="600.3067">FanDriver</text><line style="stroke:#181818;stroke-width:0.5;" x1="127.53" x2="527.5886" y1="611.46" y2="611.46"/><rect fill="none" height="6" style="stroke:#C82930;stroke-width:1;" width="6" x="134.53" y="622.1084"/><text fill="#000000" font-family="sans-serif" font-size="14" lengthAdjust="spacing" textLength="296.5498" x="146.53" y="628.4551">shared_ptr&lt;ModbusRegister&gt; fanRegister</text><rect fill="none" height="6" style="stroke:#C82930;stroke-width:1;" width="6" x="134.53" y="638.4053"/><text fill="#000000" font-family="sans-serif" font-size="14" lengthAdjust="spacing" textLength="130.8467" x="146.53" y="644.752">float currentSpeed</text><line style="stroke:#181818;stroke-width:0.5;" x1="127.53" x2="527.5886" y1="652.0538" y2="652.0538"/><ellipse cx="137.53" cy="665.7022" fill="#84BE84" rx="3" ry="3" style="stroke:#038048;stroke-width:1;"/><text fill="#000000" font-family="sans-serif" font-size="14" lengthAdjust="spacing" textLength="376.0586" x="146.53" y="669.0489">FanDriver(shared_ptr&lt;ModbusRegister&gt; fanRegister)</text><ellipse cx="137.53" cy="681.9991" fill="#84BE84" rx="3" ry="3" style="stroke:#038048;stroke-width:1;"/><text fill="#000000" font-family="sans-serif" font-size="14" lengthAdjust="spacing" textLength="225.6201" x="146.53" y="685.3457">void setFanSpeed(float percent)</text><ellipse cx="137.53" cy="698.2959" fill="#84BE84" rx="3" ry="3" style="stroke:#038048;stroke-width:1;"/><text fill="#000000" font-family="sans-serif" font-size="14" lengthAdjust="spacing" textLength="166.8379" x="146.53" y="701.6426">float getCurrentSpeed()</text></g><!--class ValveDriver--><g class="entity" data-entity="ValveDriver" data-source-line="115" data-uid="ent0010" id="entity_ValveDriver"><rect fill="#F1F1F1" height="145.7813" rx="2.5" ry="2.5" style="stroke:#181818;stroke-width:0.5;" width="261.7236" x="563.7" y="571.31"/><ellipse cx="649.2996" cy="587.31" fill="#ADD1B2" rx="11" ry="11" style="stroke:#181818;stroke-width:1;"/><path d="M652.2684,592.9506 Q651.6902,593.2475 651.0496,593.3881 Q650.409,593.5444 649.7059,593.5444 Q647.2059,593.5444 645.8777,591.9038 Q644.5652,590.2475 644.5652,587.1225 Q644.5652,583.9975 645.8777,582.3413 Q647.2059,580.685 649.7059,580.685 Q650.409,580.685 651.0496,580.8413 Q651.7059,580.9975 652.2684,581.2944 L652.2684,584.0131 Q651.6434,583.435 651.0496,583.1694 Q650.4559,582.8881 649.8309,582.8881 Q648.4871,582.8881 647.7996,583.9663 Q647.1121,585.0288 647.1121,587.1225 Q647.1121,589.2163 647.7996,590.2944 Q648.4871,591.3569 649.8309,591.3569 Q650.4559,591.3569 651.0496,591.0913 Q651.6434,590.81 652.2684,590.2319 L652.2684,592.9506 Z " fill="#000000"/><text fill="#000000" font-family="sans-serif" font-size="14" lengthAdjust="spacing" textLength="82.0244" x="669.7996" y="592.1567">ValveDriver</text><line style="stroke:#181818;stroke-width:0.5;" x1="564.7" x2="824.4236" y1="603.31" y2="603.31"/><rect fill="none" height="6" style="stroke:#C82930;stroke-width:1;" width="6" x="571.7" y="613.9584"/><text fill="#000000" font-family="sans-serif" font-size="14" lengthAdjust="spacing" textLength="112.9912" x="583.7" y="620.3051">unsigned int pin</text><rect fill="none" height="6" style="stroke:#C82930;stroke-width:1;" width="6" x="571.7" y="630.2553"/><text fill="#000000" font-family="sans-serif" font-size="14" lengthAdjust="spacing" textLength="109.4023" x="583.7" y="636.602">bool valveOpen</text><line style="stroke:#181818;stroke-width:0.5;" x1="564.7" x2="824.4236" y1="643.9038" y2="643.9038"/><ellipse cx="574.7" cy="657.5522" fill="#84BE84" rx="3" ry="3" style="stroke:#038048;stroke-width:1;"/><text fill="#000000" font-family="sans-serif" font-size="14" lengthAdjust="spacing" textLength="235.7236" x="583.7" y="660.8989">ValveDriver(unsigned int gpioPin)</text><ellipse cx="574.7" cy="673.8491" fill="#84BE84" rx="3" ry="3" style="stroke:#038048;stroke-width:1;"/><text fill="#000000" font-family="sans-serif" font-size="14" lengthAdjust="spacing" textLength="118.8838" x="583.7" y="677.1957">void openValve()</text><ellipse cx="574.7" cy="690.1459" fill="#84BE84" rx="3" ry="3" style="stroke:#038048;stroke-width:1;"/><text fill="#000000" font-family="sans-serif" font-size="14" lengthAdjust="spacing" textLength="120.0049" x="583.7" y="693.4926">void closeValve()</text><ellipse cx="574.7" cy="706.4428" fill="#84BE84" rx="3" ry="3" style="stroke:#038048;stroke-width:1;"/><text fill="#000000" font-family="sans-serif" font-size="14" lengthAdjust="spacing" textLength="93.8574" x="583.7" y="709.7895">bool isOpen()</text></g><!--class UI--><g class="entity" data-entity="UI" data-source-line="125" data-uid="ent0011" id="entity_UI"><rect fill="#F1F1F1" height="210.9688" rx="2.5" ry="2.5" style="stroke:#181818;stroke-width:0.5;" width="518.3242" x="860.4" y="538.71"/><ellipse cx="1108.1241" cy="554.71" fill="#ADD1B2" rx="11" ry="11" style="stroke:#181818;stroke-width:1;"/><path d="M1111.0929,560.3506 Q1110.5147,560.6475 1109.8741,560.7881 Q1109.2335,560.9444 1108.5304,560.9444 Q1106.0304,560.9444 1104.7022,559.3038 Q1103.3897,557.6475 1103.3897,554.5225 Q1103.3897,551.3975 1104.7022,549.7413 Q1106.0304,548.085 1108.5304,548.085 Q1109.2335,548.085 1109.8741,548.2413 Q1110.5304,548.3975 1111.0929,548.6944 L1111.0929,551.4131 Q1110.4679,550.835 1109.8741,550.5694 Q1109.2804,550.2881 1108.6554,550.2881 Q1107.3116,550.2881 1106.6241,551.3663 Q1105.9366,552.4288 1105.9366,554.5225 Q1105.9366,556.6163 1106.6241,557.6944 Q1107.3116,558.7569 1108.6554,558.7569 Q1109.2804,558.7569 1109.8741,558.4913 Q1110.4679,558.21 1111.0929,557.6319 L1111.0929,560.3506 Z " fill="#000000"/><text fill="#000000" font-family="sans-serif" font-size="14" lengthAdjust="spacing" textLength="14.376" x="1128.6241" y="559.5567">UI</text><line style="stroke:#181818;stroke-width:0.5;" x1="861.4" x2="1377.7242" y1="570.71" y2="570.71"/><rect fill="none" height="6" style="stroke:#C82930;stroke-width:1;" width="6" x="868.4" y="581.3584"/><text fill="#000000" font-family="sans-serif" font-size="14" lengthAdjust="spacing" textLength="227.7188" x="880.4" y="587.7051">shared_ptr&lt;ssd1306os&gt; display</text><rect fill="none" height="6" style="stroke:#C82930;stroke-width:1;" width="6" x="868.4" y="597.6553"/><text fill="#000000" font-family="sans-serif" font-size="14" lengthAdjust="spacing" textLength="239.3125" x="880.4" y="604.002">shared_ptr&lt;Controller&gt; controller</text><rect fill="none" height="6" style="stroke:#C82930;stroke-width:1;" width="6" x="868.4" y="613.9522"/><text fill="#000000" font-family="sans-serif" font-size="14" lengthAdjust="spacing" textLength="156.9189" x="880.4" y="620.2989">float localCO2Setpoint</text><rect fill="none" height="6" style="stroke:#C82930;stroke-width:1;" width="6" x="868.4" y="630.2491"/><text fill="#000000" font-family="sans-serif" font-size="14" lengthAdjust="spacing" textLength="141.5791" x="880.4" y="636.5957">bool editingSetpoint</text><rect fill="none" height="6" style="stroke:#C82930;stroke-width:1;" width="6" x="868.4" y="646.5459"/><text fill="#000000" font-family="sans-serif" font-size="14" lengthAdjust="spacing" textLength="166.168" x="880.4" y="652.8926">int savedMessageTimer</text><line style="stroke:#181818;stroke-width:0.5;" x1="861.4" x2="1377.7242" y1="660.1944" y2="660.1944"/><ellipse cx="871.4" cy="673.8428" fill="#84BE84" rx="3" ry="3" style="stroke:#038048;stroke-width:1;"/><text fill="#000000" font-family="sans-serif" font-size="14" lengthAdjust="spacing" textLength="492.3242" x="880.4" y="677.1895">UI(shared_ptr&lt;ssd106os&gt; display, shared_ptr&lt;Controller&gt; controller)</text><ellipse cx="871.4" cy="690.1397" fill="#84BE84" rx="3" ry="3" style="stroke:#038048;stroke-width:1;"/><text fill="#000000" font-family="sans-serif" font-size="14" lengthAdjust="spacing" textLength="108.7051" x="880.4" y="693.4864">void updateUI()</text><ellipse cx="871.4" cy="706.4366" fill="#84BE84" rx="3" ry="3" style="stroke:#038048;stroke-width:1;"/><text fill="#000000" font-family="sans-serif" font-size="14" lengthAdjust="spacing" textLength="151.7305" x="880.4" y="709.7832">void onEncoderTurn()</text><ellipse cx="871.4" cy="722.7334" fill="#84BE84" rx="3" ry="3" style="stroke:#038048;stroke-width:1;"/><text fill="#000000" font-family="sans-serif" font-size="14" lengthAdjust="spacing" textLength="146.7334" x="880.4" y="726.0801">void onButtonPress()</text><ellipse cx="871.4" cy="739.0303" fill="#84BE84" rx="3" ry="3" style="stroke:#038048;stroke-width:1;"/><text fill="#000000" font-family="sans-serif" font-size="14" lengthAdjust="spacing" textLength="161.6221" x="880.4" y="742.377">void setLocalSetpoint()</text></g><!--class Cloud--><g class="entity" data-entity="Cloud" data-source-line="139" data-uid="ent0012" id="entity_Cloud"><rect fill="#F1F1F1" height="325.0469" rx="2.5" ry="2.5" style="stroke:#181818;stroke-width:0.5;" width="641.1182" x="7" y="809.68"/><ellipse cx="303.314" cy="825.68" fill="#ADD1B2" rx="11" ry="11" style="stroke:#181818;stroke-width:1;"/><path d="M306.2827,831.3206 Q305.7046,831.6175 305.064,831.7581 Q304.4233,831.9144 303.7202,831.9144 Q301.2202,831.9144 299.8921,830.2738 Q298.5796,828.6175 298.5796,825.4925 Q298.5796,822.3675 299.8921,820.7113 Q301.2202,819.055 303.7202,819.055 Q304.4233,819.055 305.064,819.2113 Q305.7202,819.3675 306.2827,819.6644 L306.2827,822.3831 Q305.6577,821.805 305.064,821.5394 Q304.4702,821.2581 303.8452,821.2581 Q302.5015,821.2581 301.814,822.3363 Q301.1265,823.3988 301.1265,825.4925 Q301.1265,827.5863 301.814,828.6644 Q302.5015,829.7269 303.8452,829.7269 Q304.4702,829.7269 305.064,829.4613 Q305.6577,829.18 306.2827,828.6019 L306.2827,831.3206 Z " fill="#000000"/><text fill="#000000" font-family="sans-serif" font-size="14" lengthAdjust="spacing" textLength="39.9902" x="323.814" y="830.5267">Cloud</text><line style="stroke:#181818;stroke-width:0.5;" x1="8" x2="647.1182" y1="841.68" y2="841.68"/><rect fill="none" height="6" style="stroke:#C82930;stroke-width:1;" width="6" x="15" y="852.3284"/><text fill="#000000" font-family="sans-serif" font-size="14" lengthAdjust="spacing" textLength="147.7178" x="27" y="858.6751">Controller* controller</text><rect fill="none" height="6" style="stroke:#C82930;stroke-width:1;" width="6" x="15" y="868.6253"/><text fill="#000000" font-family="sans-serif" font-size="14" lengthAdjust="spacing" textLength="222.4893" x="27" y="874.972">struct ltcp_tls_config* tls_config</text><text fill="#000000" font-family="sans-serif" font-size="14" lengthAdjust="spacing" textLength="4.4502" x="27" y="891.2689">&#160;</text><rect fill="none" height="6" style="stroke:#C82930;stroke-width:1;" width="6" x="15" y="901.2191"/><text fill="#000000" font-family="sans-serif" font-size="14" lengthAdjust="spacing" textLength="142.4131" x="27" y="907.5657">struct TLS_CLIENT_T</text><line style="stroke:#181818;stroke-width:0.5;" x1="8" x2="647.1182" y1="914.8675" y2="914.8675"/><ellipse cx="18" cy="928.5159" fill="#84BE84" rx="3" ry="3" style="stroke:#038048;stroke-width:1;"/><text fill="#000000" font-family="sans-serif" font-size="14" lengthAdjust="spacing" textLength="198.6318" x="27" y="931.8626">Cloud(Controller* controller)</text><ellipse cx="18" cy="944.8128" fill="#84BE84" rx="3" ry="3" style="stroke:#038048;stroke-width:1;"/><text fill="#000000" font-family="sans-serif" font-size="14" lengthAdjust="spacing" textLength="62.6445" x="27" y="948.1595">~Cloud()</text><ellipse cx="18" cy="961.1097" fill="#84BE84" rx="3" ry="3" style="stroke:#038048;stroke-width:1;"/><text fill="#000000" font-family="sans-serif" font-size="14" lengthAdjust="spacing" textLength="176.0254" x="27" y="964.4564">bool updateSensorData()</text><rect fill="#F24D5C" height="6" style="stroke:#C82930;stroke-width:1;" width="6" x="15" y="974.4066"/><text fill="#000000" font-family="sans-serif" font-size="14" lengthAdjust="spacing" textLength="556.7939" x="27" y="980.7532">string performTLSRequest(const char* server, const char request*, int timeout)</text><rect fill="#F24D5C" height="6" style="stroke:#C82930;stroke-width:1;" width="6" x="15" y="990.7034"/><text fill="#000000" font-family="sans-serif" font-size="14" lengthAdjust="spacing" textLength="395.5342" x="27" y="997.0501">void parseAndPrintSetpoint(const std::string&amp; response)</text><rect fill="#F24D5C" height="6" style="stroke:#C82930;stroke-width:1;" width="6" x="15" y="1007.0003"/><text fill="#000000" font-family="sans-serif" font-size="14" lengthAdjust="spacing" textLength="330.4971" x="27" y="1013.347">static err_t tlsClientClose(TLS_CLIENT_T* state)</text><rect fill="#F24D5C" height="6" style="stroke:#C82930;stroke-width:1;" width="6" x="15" y="1023.2972"/><text fill="#000000" font-family="sans-serif" font-size="14" lengthAdjust="spacing" textLength="511.7383" x="27" y="1029.6439">static err_t tlsClientConnected(void* arg, struct altcp_pcb* pcb, err_t err)</text><rect fill="#F24D5C" height="6" style="stroke:#C82930;stroke-width:1;" width="6" x="15" y="1039.5941"/><text fill="#000000" font-family="sans-serif" font-size="14" lengthAdjust="spacing" textLength="395.0488" x="27" y="1045.9407">static err_t tlsClientPoll(void* arg, struct altcp_pcb* pcb)</text><rect fill="#F24D5C" height="6" style="stroke:#C82930;stroke-width:1;" width="6" x="15" y="1055.8909"/><text fill="#000000" font-family="sans-serif" font-size="14" lengthAdjust="spacing" textLength="295.8389" x="27" y="1062.2376">static void tlsClientErr(void* arg, err_t err)</text><rect fill="#F24D5C" height="6" style="stroke:#C82930;stroke-width:1;" width="6" x="15" y="1072.1878"/><text fill="#000000" font-family="sans-serif" font-size="14" lengthAdjust="spacing" textLength="576.5361" x="27" y="1078.5345">static err_t tlsClientRecv(void* arg, struct altcp_pcb* pcb, struct pbuf* p, err_t err)</text><rect fill="#F24D5C" height="6" style="stroke:#C82930;stroke-width:1;" width="6" x="15" y="1088.4847"/><text fill="#000000" font-family="sans-serif" font-size="14" lengthAdjust="spacing" textLength="595.2803" x="27" y="1094.8314">static void tlsClientConnectToServerIp(const ip_addr_t* ipaddr, TLS_CLIENT_T* state)</text><rect fill="#F24D5C" height="6" style="stroke:#C82930;stroke-width:1;" width="6" x="15" y="1104.7816"/><text fill="#000000" font-family="sans-serif" font-size="14" lengthAdjust="spacing" textLength="615.1182" x="27" y="1111.1282">static void tlsClientDnsFound(const char* hostname, const ip_addr_t *ipaddr, void *arg)</text><rect fill="#F24D5C" height="6" style="stroke:#C82930;stroke-width:1;" width="6" x="15" y="1121.0784"/><text fill="#000000" font-family="sans-serif" font-size="14" lengthAdjust="spacing" textLength="490.5947" x="27" y="1127.4251">static bool tlsClientOpen(const char* hostname, TLS_CLIENT_T* state)</text></g><!--reverse link CO2Sensor to ISensor--><g class="link" data-entity-1="CO2Sensor" data-entity-2="ISensor" data-source-line="160" data-uid="lnk13" id="link_CO2Sensor_ISensor"><path codeLine="160" d="M3163.6475,331.7345 C3355.8375,418.7545 3636.91,546.01 3775.57,608.79" fill="none" id="CO2Sensor-backto-ISensor" style="stroke:#181818;stroke-width:1;stroke-dasharray:7.0,7.0;"/><polygon fill="none" points="3147.25,324.31,3161.1727,337.2003,3166.1223,326.2686,3147.25,324.31" style="stroke:#181818;stroke-width:1;"/></g><!--reverse link PressureSensor to ISensor--><g class="link" data-entity-1="PressureSensor" data-entity-2="ISensor" data-source-line="161" data-uid="lnk14" id="link_PressureSensor_ISensor"><path codeLine="161" d="M3851.56,374.96 C3851.56,457.52 3851.56,546.57 3851.56,603.5" fill="none" id="PressureSensor-backto-ISensor" style="stroke:#181818;stroke-width:1;stroke-dasharray:7.0,7.0;"/><polygon fill="none" points="3851.56,356.96,3845.56,374.96,3857.56,374.96,3851.56,356.96" style="stroke:#181818;stroke-width:1;"/></g><!--reverse link TempRHSensor to ISensor--><g class="link" data-entity-1="TempRHSensor" data-entity-2="ISensor" data-source-line="162" data-uid="lnk15" id="link_TempRHSensor_ISensor"><path codeLine="162" d="M4491.9793,340.1784 C4309.4993,426.5184 4057.44,545.78 3927.55,607.24" fill="none" id="TempRHSensor-backto-ISensor" style="stroke:#181818;stroke-width:1;stroke-dasharray:7.0,7.0;"/><polygon fill="none" points="4508.25,332.48,4489.4132,334.7549,4494.5455,345.602,4508.25,332.48" style="stroke:#181818;stroke-width:1;"/></g><!--SRC=[ZLTRRnev57xdL_XfHLXQxQRIggggI2cX6wIqGK3wYepd05PcRA_j8KMxxM_VOy_5zZ25l83zdUFZp-Tc3uYo8DC32BiwAY3_3WYPBwRB9VwldXPV1py60vPJOyZVYaklvtL-RwV3gtGQRDansKYP4_Oo9YKNzjtrsX9hl7waXJyEgLHpoPvVkF58kuGNO2mjb2E38EWjPK1cIn16wegENws1PXLOaVevQsVjCIQFr_6wTZeqUweXMokhFtwHsQOq2zXnWvlT42Ql7-GBpiVaZ5O61yvWQQdrw5bTjDWgUghRN59B65Waf5GnZC0Ts6yqBm4n1D-yXkS5lGxJorOJrPggT3o3N-SQZ2arnCvDiTZ3Syxax7foGuhZcb-pAZ_UOwnnSfjbRjsOL1lHt79RPh0knkJ7mCUvD33HhDz5CTRiFwUdlkimSD9I6BuJa970PKqhCk7SghKPi43HOH75I4KfBR_pWbguBJOSaxyXD-pQk6gDi3smPpJpVjYbLfWD-gm3vdqWq-pJqK9K0IierE8-ZbECdAi3w_GkPBRUNzAmUZ_LMkeqzJ5SZWPep3JT3UHzMV2Cs-Fb4gWfNj3o92zP2ZH366sW6C1zpIvgCb9OBVCSQWSV9CyYCFPnsu1yeIMEYyE2VFOwaQR5TUCJCr7uJCMTvWTtbYqLYGYBvG2DyE0cYNWwdIyUloojr7G7DmG0SxUefrVjUKgLOJRNfne6tFWcjWIh9EPWdTwcdgPnZVKwab9hB19Kw1Sut_HB5lVzU5jllL9qrb81P9NKLnyttasF2aI46he5U_o6Ixgfc4Qo6dPKJYBQgzKNsLx5DC8TuMcCEmhdeknKLtZjwdigiXomZtWB7l9cy4BWZFXu1yc4vlc6ikTXklIxdrubTqSJzWXi8tw2ERUTW8lx4wXnt8cWYMweqDPrLO6sqtFj3ttSJ99iRtEdlY50CpZ9z8f8asCNUa-qqybPEWU9mbmT9GAIQuFiy8asvo9GbvZPNZigNdo06OZ0kXBg8kZUaaHnqTvMXwPQ0hcdMSNfQHRxrPZipp_-aWOV8joed1wJvXFQfAkZPjnjEsWnEeYO2YOpqAjIYmJ_L5ehXS-Bj4CzI4RpgFTq0k8elaiuTekzbsK8LkxiH-sjzHBWJS75BiQT8mqzGFO5QMBnLLKMBfDSbbdzMdN3OTXxrFNGpqeZXAxoLjKzxgXj7aBz9ghArYL3_fQfjStD6gLRlXkHCAwry10krRTI5wk7vGB-AV6HFaGLWwcAZXgXcpKcuPW435_eNcqqzjdZ7lQoz9NonWT6KMtWLcHpj6xRw5JhZSq-VAZs_Gtj68Ker86hE2EDzUHXDlswMg-Y9WLQku-8t4noz-wQk0mVnhh853NzpVQhDL88O1PBrz4S4QhT4wVQbNfNAROP4VmPrqlnzuozERhxegchRgDjb-Ex95xzcXqNm0wl85_3QbDk4Vc5wPHCxPkLNFfmprGTBwxyutbjHpXqep6vuFJKxfqmdsKfiYIbzj9OGGjeaghTX8oQJRoL4HuoDkrheJNjkrc_sLwAM8hXi_7ZVs_VDj-UWyvNJo9Btjcnv7y0]--></g></svg>